<mxfile host="app.diagrams.net" modified="2023-05-03T09:26:34.460Z" agent="Mozilla/5.0 (Windows NT 10.0; Win64; x64) AppleWebKit/537.36 (KHTML, like Gecko) Chrome/112.0.0.0 Safari/537.36" version="21.2.4" etag="SsJ0GW92pNtNRxsXAPCu" type="github">
  <diagram name="Page-1" id="RVPAaBx-Ijfwid1fsaG6">
    <mxGraphModel>
      <root>
        <mxCell id="0" />
        <mxCell id="1" parent="0" />
      </root>
    </mxGraphModel>
  </diagram>
</mxfile>
